<?xml version="1.0" standalone="no"?><!DOCTYPE svg PUBLIC "-//W3C//DTD SVG 1.1//EN" "http://www.w3.org/Graphics/SVG/1.1/DTD/svg11.dtd"><svg t="1630983607434" class="icon" viewBox="0 0 1024 1024" version="1.1" xmlns="http://www.w3.org/2000/svg" p-id="3021" xmlns:xlink="http://www.w3.org/1999/xlink" width="200" height="200"><defs><style type="text/css"></style></defs><path d="M686.122667 938.666667a108.757333 108.757333 0 0 1-108.416-109.226667v-145.450667a108.501333 108.501333 0 0 1 108.416-109.269333h144.213333A108.757333 108.757333 0 0 1 938.666667 683.989333v145.408A108.970667 108.970667 0 0 1 830.293333 938.666667zM193.706667 938.666667A109.013333 109.013333 0 0 1 85.333333 829.397333v-145.408a108.757333 108.757333 0 0 1 108.373334-109.269333h144.213333a108.501333 108.501333 0 0 1 108.373333 109.269333v145.408A108.714667 108.714667 0 0 1 337.92 938.666667z m492.416-489.386667a108.458667 108.458667 0 0 1-108.416-109.226667V194.602667A108.757333 108.757333 0 0 1 686.122667 85.333333h144.213333A108.970667 108.970667 0 0 1 938.666667 194.602667V340.053333a108.714667 108.714667 0 0 1-108.373334 109.226667z m-492.416 0A108.714667 108.714667 0 0 1 85.333333 340.053333V194.602667A109.013333 109.013333 0 0 1 193.706667 85.333333h144.213333a108.757333 108.757333 0 0 1 108.373333 109.269334V340.053333a108.458667 108.458667 0 0 1-108.373333 109.226667z" p-id="3022" fill="#2c2c2c"></path></svg>